<?xml version="1.0" standalone="no"?>
<!DOCTYPE svg PUBLIC "-//W3C//DTD SVG 20010904//EN"
 "http://www.w3.org/TR/2001/REC-SVG-20010904/DTD/svg10.dtd">
<svg version="1.0" xmlns="http://www.w3.org/2000/svg"
 width="100.000000pt" height="100.000000pt" viewBox="0 0 100.000000 100.000000"
 preserveAspectRatio="xMidYMid meet">
<metadata>
Created by potrace 1.16, written by Peter Selinger 2001-2019
</metadata>
<g transform="translate(0.000000,100.000000) scale(0.100000,-0.100000)"
fill="#000000" stroke="none">
<path d="M282 854 c-173 -86 -228 -376 -106 -562 33 -50 104 -112 129 -112 6
0 32 -20 56 -44 53 -52 109 -71 189 -63 77 7 161 47 225 108 71 67 111 130
131 209 28 110 -1 207 -78 257 -37 25 -50 28 -129 28 l-87 0 -18 39 c-24 54
-91 125 -139 147 -56 26 -112 24 -173 -7z m167 -34 c43 -22 83 -64 111 -121
l20 -37 -48 -28 c-25 -15 -68 -47 -93 -71 -31 -29 -52 -41 -63 -37 -13 5 -16
1 -15 -22 1 -16 -9 -51 -22 -79 -15 -33 -25 -77 -29 -130 l-5 -80 -56 55 c-72
71 -102 143 -103 250 0 125 47 226 136 290 50 36 109 40 167 10z m304 -181
c159 -44 169 -243 22 -407 -118 -131 -317 -164 -395 -64 -112 142 45 419 267
471 52 12 63 12 106 0z"/>
</g>
</svg>
